<?xml version="1.0" encoding="utf-8"?>
<!-- Generator: Adobe Illustrator 22.0.1, SVG Export Plug-In . SVG Version: 6.00 Build 0)  -->
<svg version="1.1" id="Ebene_1" xmlns="http://www.w3.org/2000/svg" xmlns:xlink="http://www.w3.org/1999/xlink" x="0px" y="0px"
	 viewBox="0 0 170 170" style="enable-background:new 0 0 170 170;" xml:space="preserve">
<style type="text/css">
	.st0{fill:#3939D3;}
</style>
<g id="sustain">
	<path d="M142.3,127.9l-11-67.7c0,0-9.9,2.9-25.2,2.2c-12-0.5-20.4-3.2-23.1-4.1c-2.6-0.9-4.8,3.8-4.8,3.8l-11.7,65.9
		c0,0,1,6.3,36.6,5.6C138.8,132.8,142.3,127.9,142.3,127.9z"/>
	<path d="M127.8,50.8l-0.1-0.9l-0.5-5.6l-0.2-1.7l-0.2-2c-0.3-3.8-0.6-8.5-3-11.1c-1.2-1.3-2.5-1.8-4.1-1.6
		c-7.2,1-15.9,18.9-19.7,26.5l-1.1,2.2l-1.8,3.2c-1.7,3-3.2,5.9-4.4,9.3l-0.4,1.1c-0.7,2-1.6,4.4-0.9,6.1c0.8,1.6,2.5,2.5,4.3,2.4
		c0.9-0.1,1.6-0.5,2.1-1.2c0.1,0,0.2-0.2,0.3-0.4l0.1-0.4l0-0.3l0.1-0.4l0.1-0.4l0.5-2.7c0.5-2.7,1.1-5.4,2.2-8
		c0.8-1.8,1.5-3.6,2.2-5.4l2.1-5.3c2.2-5.1,5.6-12.3,10-16.7c1.6-1.6,3.1-2.1,4.4-1.6c1.7,0.6,2.9,3.1,3,6.1c0,0.7-0.1,1.6-0.2,2.7
		c-0.4,3.3-0.9,7.8,2.5,8.4c1.1,0.2,1.7,0.1,2-0.3C128,52.5,127.9,51.7,127.8,50.8L127.8,50.8z"/>
	<path d="M75.3,76.5L36,61l-3.9,6.3l6.9,5.8l33,23.4L75.3,76.5z"/>
	<path d="M26.5,47.9c-5,2-10.4,6.3-10.4,16.6s3.5,10.7,3.5,10.7l2.2-0.9l0.2,1.4c0,0,10.7-7.2,12.3-11.9c1.6-4.7,1.4-12.5-1-14.1
		S26.5,47.9,26.5,47.9z M156.6,65.7c-0.2-4.3-5.7-8.9-11.2-7.5s-11.3,13.6-11.3,13.6l0.5,3.8c0,0,0.9-3,2.9-5.7
		c2-2.8,8.3-9.3,10.7-7.9c2.5,1.4,4.3,4.1,3,10c-1.2,5.9-8,17.5-9.1,19.8c-1.1,2.3-4.5,10.6-4.5,10.6l1.3,8.2c0,0,0.6-0.6,1.7-5
		c2.7-7.3,6.3-14.2,10.7-20.6C155,79.2,156.8,72.5,156.6,65.7L156.6,65.7z"/>
	<path d="M119.6,52.9l1.8,0.3L119.6,52.9z M153,59.3c-8.1-6.1-15.8,4.8-19.1,11.5h-0.2c-0.4-2.3-0.8-4.6-1.1-6.9c-0.1-1-0.4-2-0.5-3
		c0-0.9,0.8-2.5,0.7-3.1c-0.2-1.3,0.2-0.4-0.6-1.3c-1.3-0.8-2.7-1.4-4.1-1.8c-0.2-0.3,0.2-2.5,0.3-3c0-1.6-0.2-3.2-0.3-4.8
		c-0.1-2.8-0.4-5.6-0.7-8.4c-0.5-3.9-1.2-10.6-6-11.4c-4.3-0.7-9.1,4.9-11.3,7.9c-3.5,4.6-5.7,10.1-8.8,14.9
		c-3.8-0.3-7.6,0.1-11.3,1.1c-2.3,0.7-8.1,2.5-8.4,5.5c1.4-0.5,2.7-1.8,4.1-2.5c1.7-0.9,3.4-1.6,5.2-2.1c3.2-1,6.6-1.3,9.9-0.9
		c0,0.1-0.1,0.2-0.1,0.3c-0.4,1.4-1.4,5.1-2.3,6c-2.2-0.2-16.2-1.8-17,0.2c-1.1,2.5,12.7,4.4,14.1,4.7c-1.7,4.2-9.1,15.4-1.3,17.7
		c3.6,1.1,5.3-2,5.7-5.2c0.6-4.1,2-7.7,3.5-11.6c2.4-0.9,7,0.1,9.6,0.1c3.3,0,6.4-0.2,9.7-0.6c1.8-0.2,3.6-0.4,5.3-0.9
		c0.6-0.2,2-1.2,2.5-1c1.5,0.4,1.4,5.7,1.7,7.2c0.9,6.7,2,13.4,3.1,20c1,5.9,2.3,12.6,2.3,18.5c-7.2,1.6-13.7,5.4-21,6.8
		c-6.8,1.2-13.7,2.1-20.6,2.7c-7.1,1.5-17,1.4-24-0.7c-3.6-1-2.1-3-1.6-6.2c0.6-3.4,0.8-7.2,1.9-10.5c0.3-0.9,0.8-1.2,0.9-1.9
		c-0.5-0.4-0.7-0.9-0.4-1.5l0.5-3.1l2-11.1c0.7-3.8,1.5-7.6,2.4-11.4c0.9-3.6,3.4-8.3,2.9-12c-3.3,4.7-3.9,12.7-5.2,18.3
		c-8.3-2-16.1-6.8-24.2-9.7c-2.2-0.8-4.4-1.8-6.6-2.6c-2-0.8-4.9-1.1-6.6-2.3c-2.9-2-1.8-6.4-3.1-9.6c-3.8-9.1-13.7-3.4-16.8,3
		c-1.8,3.8-2.6,8-2.3,12.2c0.2,2.1,0.6,4.8,1.6,6.7c1.2,2.2,2.1,3,4,1.4l0.2,0.2c-0.9,0.7-0.5,1.2,0.4,1.4c0.1,0,2.9-2.3,2.7-2.1
		l7.8-5.9c10.9,8.7,22.6,16,33.8,24.3c2.2,1.7,5,2.8,4.9,5.7c-0.1,3.2-1.3,6.8-1.9,10c-0.5,2.9-1.2,5.7-1.6,8.5
		c-0.2,1.3-0.2,4.6-1,5.6c-0.7,1-1.8,0.8-3,1.3c-6.8,2.9-4.1,10.4,1.6,12.5c6.4,2.4,13.7,2.9,20.4,4.1c12.8,2.2,26.7,0.2,39.5-1.2
		c7.4-0.8,15-1.3,20.9-6.3c1.9-1.6,3.2-3.5,2.7-6.1c-0.4-2.4-3.3-5.5-5.9-4.1c0.9,1.4,2.9,1.1,3.9,2.6c1.3,1.8,0.8,4.1-0.6,5.6
		c-3.3,3.3-7.6,5.4-12.3,6c-9.8,1.8-20,2.1-30,2.8c-10.2,0.7-19.7-0.3-29.7-2.5c-3.9-0.9-9.5-1.1-12.4-4.3c-3.2-3.6,0-8.1,4-8.9
		l0.2,0.2c-1.1,3.7-1.5,5.2,2.3,6.6c3.2,1.2,6.8,1.6,10.2,2.2c7.5,1.4,14.9,2.1,22.5,2.1c7.3,0.1,14.7-0.9,22-1.5
		c5.7-0.4,15.8-0.8,20-5.3c-2.1-1.4-2-5.3-2.3-7.5c-0.5-2.9-1.1-5.9-1-8.8c0.4-6.8,4.1-13.1,7.3-18.9
		C151.7,85.4,163.7,67.3,153,59.3L153,59.3z M129.7,56.9l0.3,0.2l-0.1,0.4c-8.1,1.4-16.4,0.5-24.7,0.5l2.9-5.9
		C115.2,53.6,123.3,53.5,129.7,56.9z M119.7,52.9c-3.4-0.5-6.7-1.1-10.1-1.7l10,1.7c-3.5-0.7-7.4-1.4-10.9-2
		c1.4-2.7,2.9-5.4,4.5-7.9c1.2-1.9,2.7-4.9,4.9-5.7c2.7-0.9,3.9,1.2,3.8,3.8l0.6,11.7l-0.1,0.7l0.9,0.3
		C122.1,53.4,120.9,53.1,119.7,52.9L119.7,52.9z M95.4,61c-3.7-0.4-7.6-0.9-11.1-2.3l0.1-0.4c4.2-0.3,8.6,0.3,12.7-0.2l-1.3,3
		C95.8,61,95.4,61,95.4,61z M98.1,76.8c-0.7,3.1-4.9,2.2-6-0.2c-0.8-1.9,0.6-5,1.3-6.9c1.6-4.6,3.9-8.2,6.1-12.4
		c2.3-4.4,16.3-35.6,24.2-27.1c2.7,2.9,2.7,9,3,12.8c0.2,2.4,0.5,4.9,0.7,7.3c0.1,2.1,0.7,3.4-1.8,3c-3.9-0.7-1.9-7.8-2-10.7
		c-0.2-5.1-3.5-9.4-8.1-4.8c-4.3,4.3-7.7,11.3-10.2,16.8c-1.5,3.5-2.7,7.2-4.3,10.7C99.4,69.1,99.1,72.8,98.1,76.8
		C97.5,79.4,98.7,74.3,98.1,76.8L98.1,76.8z M126.1,60.8c-7.2,1.3-14.9,1.4-22.3,0.8c0.1-0.2,0.2-0.4,0.3-0.4
		c0.5-1.1,0.8-1.8,0.9-2.3c8.5,0.8,17.9,1.1,26.3-0.7C130.1,60.3,128,60.5,126.1,60.8z M35.1,59.2c0.3,0.8-0.5,2.5-0.7,3.2h-0.2v-3
		l0.5,0.4L35.1,59.2C35.2,59.3,35,59.4,35.1,59.2z M34.5,54.2c0,1,0.7,2-0.2,3v-3H34.5C34.5,55.1,34.4,54.2,34.5,54.2z M33.8,52.3
		l0.5,0.5l-0.3,0c-0.4,0.5-0.7,1-1,1.6c-0.1,0-0.2-0.1-0.3-0.2C32.9,53.5,33.3,52.8,33.8,52.3C34,52.5,33.6,52.5,33.8,52.3z
		 M18.5,64.4l-0.4,6.8c-2.5-4-1.2-16.6,4.3-20.6C20.1,54.9,18.8,59.6,18.5,64.4C18.3,66.7,18.7,60.8,18.5,64.4L18.5,64.4z
		 M27.5,70.7l-0.2-0.1l0.2-1.6l1.7,0.1v0.3L27.5,70.7C27.4,70.7,28.1,70.3,27.5,70.7L27.5,70.7z M28.1,61.6v1.7
		C27.4,62.8,27.6,62.3,28.1,61.6z M29.7,69l-0.2-0.1l0.5-6.3c0.3,1.8-0.5,3.5,0.5,5.4L29.7,69C29.7,69,30.1,68.6,29.7,69L29.7,69z
		 M25.7,63.6c-2,3.6-3.5,7.4-5.4,11.1c-2.4-5.1-0.8-15.2,1.5-20.3c1.1-2.5,3.1-4.7,5.9-5.2c2-0.4,4.1,1.8,5.4,0.9
		C33.1,54.4,27.7,59.9,25.7,63.6z M32.2,66c-2.6-0.7-1.1-8.8-0.2-10.8c0,1.2,0,9.8,0.2,9.7c1.8-1.1,0-7.9,0.9-9.8h0.2
		C33.4,58.9,34.2,63,32.2,66C31,65.7,32.6,65.4,32.2,66z M67.6,92.6C59.8,87,51.3,82.1,43.8,76.1c-3-2.3-7.2-4.8-9.6-7.8
		c-1.3-1.6-1.1-1.4,0.2-3.4c1.4-2.2,1.9-2.7,4.4-2.2c4.8,1,9.7,3.5,14.2,5.3c5,2.1,10,4.1,15,6.1c1.6,0.7,4.8,1.2,6,2.5
		c1.3,1.3,0.7,2,0.4,4c-0.9,4.8-1.3,10.2-2.8,14.8L67.6,92.6L67.6,92.6z M69.1,115.6c12.3,3.1,25.4,1.8,37.8,0.2
		c5.4-0.7,10.9-1.4,16-3c4.5-1.4,10.8-2.7,14.5-5.6c1.1,1.7-12.1,5.9-13.8,6.3c-6.1,1.6-12.3,2.9-18.6,3.9c-6.2,0.9-12.3,2-18.6,2
		c-4.6,0-14.3,0.4-17.6-3.5L69.1,115.6C70.3,115.9,69.1,115.6,69.1,115.6z M140.6,128.5c-2.6,1.2-6.4,1.2-9.2,1.6
		c-5.7,0.9-11.3,1.8-17,2.5c-11,1.4-21.8,0.9-32.7-0.7c-3.4-0.5-9.8-0.5-12.7-2.6c-2.4-1.7-1.1-6.9-0.3-9.5c0.5-1.8,0.1-1.4,1.6-1.6
		c1.8-0.4,5.1,1.1,7,1.4c7.5,1.3,14.8,1.5,22.3,0.1c7.2-1.4,14.8-2.5,21.9-4.3c3.4-0.8,6.6-2.3,9.8-3.7c1.4-0.6,4.7-2.6,6.3-1.9
		C137.7,111.6,141.3,128.2,140.6,128.5L140.6,128.5z M152.3,82.1c-4.7,8.4-10.3,16.8-13,26.1h-0.2c-1.6-6.3,2.1-13.4,5-18.8
		c3-5.5,6.2-10.6,7.6-16.6c1.1-4.5,1.2-13.6-6-11.2c-4.2,1.4-11.2,8.6-11,13.2c1.8-1.4,2.7-4.1,4.2-6c1.5-1.8,3.1-3.6,5.1-4.9
		c5.9-4,7.3,1.7,7,6.8c-0.5,5.6-3.3,10.2-6,14.9c-2.6,4.7-4.6,9.4-6.8,14.2h-0.3c-1.1-6.6-1.6-13.2-2.7-19.8
		c-1.4-5.8,0.2-11.8,4.2-16.2c4.1-5,11.5-7.9,15.4-1.2C158,68.4,155.2,76.8,152.3,82.1C150.5,85.4,154.6,77.8,152.3,82.1L152.3,82.1
		z"/>
</g>
<path class="st0" d="M11,66.8c-0.9-1.5-6.1,7.4-3.7,9.4C8.8,77.5,12.3,68.9,11,66.8z"/>
<path class="st0" d="M6.6,94.7c-0.4-2.9-2.9,0.4-3.3,1.4c-0.5,1.3-1.4,4.8-0.9,6.1c0.4,1-0.3,1.5,1.3,0.5c1.9-1.2,2.7-5.1,3.1-7H6.6
	L6.6,94.7L6.6,94.7z"/>
<path class="st0" d="M11.6,80.5c-2.5,1.6-2.6,4.5-3.1,7.2l0.2,0c-0.1,0.6,0.2,1.2,0.7,1.6c1.5-1,2.4-2.8,3-4.5
	C12.7,84.1,13.4,79.4,11.6,80.5z"/>
<path class="st0" d="M4.8,82.8l-0.3-0.1c0-2.6-1.6-2.4-2.7-0.5C0.6,84,0,86.6,1,88.4C3.2,87.3,3.8,85,4.8,82.8
	C4.7,82.8,4.2,84,4.8,82.8z"/>
</svg>
